<svg width="19" height="24" viewBox="0 0 19 24" fill="none" xmlns="http://www.w3.org/2000/svg">
  <path fill-rule="evenodd" clip-rule="evenodd" d="M10.5167 0.339529L2.78933 2.41008C1.45566 2.76744 0.664205 4.13828 1.02156 5.47194L5.42148 21.8927C5.77884 23.2263 7.14968 24.0178 8.48335 23.6604L16.2108 21.5899C17.5444 21.2325 18.3359 19.8617 17.9785 18.528L13.5786 2.1073C13.407 1.46685 12.988 0.920801 12.4138 0.58928C11.8396 0.257759 11.1572 0.167921 10.5167 0.339529ZM12.0882 21.6592C11.2865 21.8741 10.4659 21.4003 10.2511 20.5986C10.0363 19.7969 10.5101 18.9763 11.3118 18.7615C12.1135 18.5466 12.9341 19.0204 13.1489 19.8221C13.3637 20.6238 12.8899 21.4444 12.0882 21.6592ZM6.70629 18.9602L15.3996 16.6309L11.7762 3.1079L3.08282 5.43727L6.70629 18.9602Z" fill="white" />
</svg>
  