<svg width="24" height="24" viewBox="0 0 24 24" fill="none" xmlns="http://www.w3.org/2000/svg">
  <path fill-rule="evenodd" clip-rule="evenodd" d="M18.6222 7.2941C21.4175 7.29914 22.373 8.27613 22.6813 9.09245H22.6806C23.206 10.483 22.2164 12.2734 19.8928 14.1359L19.7683 14.2346L19.1747 14.7123C18.0995 17.7924 15.2492 20 11.9089 20C10.7538 20 9.65009 19.7377 8.65706 19.2622L7.81852 19.4013C6.86446 19.5605 5.99112 19.6405 5.22217 19.6405C2.40939 19.6405 1.44837 18.662 1.13731 17.8414C0.617486 16.4689 1.58407 14.6986 3.85892 12.8549C3.97235 12.7634 4.08926 12.6719 4.20896 12.5796C4.19365 12.3837 4.18738 12.1891 4.18738 12.0004C4.18738 7.58878 7.65151 4 11.9096 4C14.3884 4 16.7015 5.22844 18.1573 7.30274C18.3111 7.29698 18.4572 7.2941 18.6013 7.2941H18.6222ZM15.5455 7.22282C14.547 6.36323 13.2732 5.88305 11.9378 5.88305V5.88235C9.17329 5.88235 6.87335 7.91842 6.45455 10.5882C7.58337 9.94337 8.83215 9.34227 10.1142 8.82735L10.1835 8.79956L10.42 8.70505C10.5843 7.45422 11.6431 6.48066 12.9356 6.48066C13.6997 6.48066 14.3778 6.82603 14.8451 7.36111L14.9845 7.33331L15.0587 7.31733C15.2216 7.28467 15.3853 7.2527 15.5455 7.22282ZM18.1632 7.76282C18.1052 7.67343 18.0459 7.58509 17.9852 7.49781C18.0458 7.58502 18.1051 7.67336 18.1632 7.76282ZM17.4732 6.82541C17.6536 7.04159 17.8239 7.26572 17.9852 7.49781C17.8241 7.26623 17.6534 7.0421 17.4732 6.82541ZM19.1818 8.70588C20.3628 8.78413 20.9157 9.11574 20.9867 9.31545C21.0645 9.53379 20.8231 10.3401 19.6611 11.5294C19.6523 10.5532 19.4914 9.60756 19.1818 8.70588ZM2.95143 18.738C2.48736 18.584 2.13751 18.3749 1.90909 18.1176C2.13751 18.3749 2.48736 18.5833 2.95143 18.738ZM20.0909 7.97647C20.4449 8.10353 20.7533 8.27388 21 8.49412C20.7527 8.27482 20.4443 8.10353 20.0909 7.97647ZM2.315 17.6809C2.3224 17.7012 2.33059 17.7212 2.33958 17.741C2.33036 17.7212 2.32187 17.7012 2.31409 17.6809C2.28292 17.5976 2.26389 17.5078 2.25561 17.4118C2.26392 17.5078 2.28311 17.5976 2.315 17.6809ZM2.33958 17.741C2.37364 17.8161 2.41908 17.8882 2.47591 17.9567C2.4198 17.8882 2.37451 17.8161 2.33958 17.741ZM3.9489 14.0809L3.92014 14.1054H3.92099L3.89341 14.1297L3.89339 14.1297L3.89337 14.1298C3.83576 14.1805 3.7793 14.2303 3.72727 14.2814C3.77454 14.2356 3.82486 14.1909 3.87587 14.1456L3.8759 14.1456L3.87593 14.1455L3.92099 14.1054L3.9489 14.0809ZM3.9489 14.0809C3.97944 14.0549 4.01 14.0284 4.03908 14.0019L3.9489 14.0809ZM4.33167 13.7422C4.23195 13.8287 4.13424 13.9153 4.03908 14.0019C4.13424 13.9148 4.23195 13.8285 4.33167 13.7422ZM4.63636 13.4833C4.53314 13.5694 4.43139 13.6558 4.33167 13.7422C4.43139 13.656 4.53314 13.5699 4.63636 13.4833ZM5.20945 17.1765C3.64309 17.1765 2.91989 16.8397 2.83165 16.6276C2.74685 16.4239 3.03571 15.6252 4.47246 14.4593C4.51322 14.4253 4.5564 14.3929 4.60086 14.3595L4.60966 14.3529C5.00056 15.4163 5.63896 16.3545 6.45455 17.1135C6.00435 17.1557 5.5907 17.1765 5.20945 17.1765ZM6.45455 13.5981C6.86853 15.542 8.23745 17.106 9.97753 17.7712C10.5643 17.9955 11.1934 18.1176 11.8422 18.1176H11.8436C14.888 18.1176 17.3636 15.5276 17.3636 12.3452C17.3636 11.4007 17.1416 10.4756 16.7211 9.64706C16.3026 9.70398 15.8607 9.78251 15.4037 9.87761L15.3658 9.88626C15.343 11.3286 14.2186 12.4944 12.8343 12.4944C11.9698 12.4944 11.2066 12.0383 10.7488 11.3452L10.6613 11.382L10.6082 11.405C9.1773 12.0096 7.8127 12.7234 6.63 13.4841C6.58289 13.3017 6.54215 13.1162 6.50808 12.9277C6.48789 12.8158 6.47006 12.7029 6.45464 12.5891C7.37043 11.8799 8.4187 11.2007 9.54452 10.5882C8.41866 11.2 7.37036 11.8792 6.45455 12.5884L6.45464 12.5891L6.45455 12.5892C6.47 12.703 6.48786 12.8158 6.50808 12.9277C6.5421 13.1162 6.5828 13.3018 6.62987 13.4841C6.57097 13.522 6.51253 13.56 6.45455 13.5981ZM6.62987 13.4841L6.63 13.4841C6.99577 14.8996 7.74533 16.1185 8.7347 16.9648C8.99969 17.192 9.28148 17.3931 9.57813 17.5635C9.28148 17.3931 8.99969 17.1935 8.73535 16.9656C7.74502 16.1187 6.99534 14.8999 6.62987 13.4841ZM18.4608 8.23297L18.4607 8.23297C18.4263 8.2338 18.3918 8.23463 18.3573 8.23526L18.6673 8.22965C18.5991 8.22965 18.5301 8.23131 18.4608 8.23297ZM16.9692 9.05717C17.1026 9.03452 17.2341 9.01389 17.3636 8.99529V8.99624C17.234 9.01439 17.1025 9.03472 16.9692 9.05717ZM15.6379 9.33485C16.0992 9.22224 16.5437 9.12944 16.9692 9.05717C16.5435 9.12887 16.0993 9.22215 15.6379 9.33485Z" fill="white" />
</svg>
  